<svg width="632" height="104" viewBox="0 0 632 104" fill="none" xmlns="http://www.w3.org/2000/svg">
<path d="M395.266 7.24838C395.199 8.09453 394.946 8.91533 394.524 9.65187C394.102 10.3884 393.522 11.0224 392.826 11.5084C392.574 11.6743 392.31 11.8214 392.036 11.9483C391.109 12.2724 390.126 12.4018 389.146 12.3284C388.577 12.2869 388.013 12.183 387.466 12.0184C387.116 11.8849 386.78 11.7139 386.466 11.5084C385.65 10.9551 384.994 10.1969 384.564 9.30986C384.133 8.42281 383.944 7.43815 384.014 6.45473C384.085 5.47131 384.413 4.52375 384.965 3.70718C385.518 2.8906 386.276 2.23375 387.162 1.80256C388.049 1.37138 389.033 1.18104 390.017 1.25066C391 1.32028 391.948 1.6474 392.765 2.19918C393.582 2.75096 394.24 3.50799 394.672 4.39426C395.104 5.28052 395.295 6.26484 395.226 7.24838H395.266Z" fill="white"/>
<path d="M490.266 8.24838C490.199 9.09453 489.946 9.91533 489.524 10.6518C489.102 11.3884 488.522 12.0224 487.826 12.5084C487.574 12.6743 487.31 12.8214 487.036 12.9483C486.109 13.2724 485.126 13.4018 484.146 13.3284C483.577 13.2869 483.013 13.183 482.466 13.0184C482.116 12.8849 481.78 12.7139 481.466 12.5084C480.65 11.9551 479.994 11.1969 479.564 10.3098C479.133 9.42281 478.944 8.43815 479.014 7.45473C479.085 6.47131 479.413 5.52375 479.965 4.70718C480.518 3.8906 481.276 3.23375 482.162 2.80256C483.049 2.37138 484.033 2.18104 485.017 2.25066C486 2.32028 486.948 2.6474 487.765 3.19918C488.582 3.75096 489.24 4.50799 489.672 5.39426C490.104 6.28052 490.295 7.26484 490.226 8.24838H490.266Z" fill="white"/>
<path d="M51 23.5237V18.2366H8.35867V28.5153H40.6627V54.5228C40.6627 64.3839 34.2524 68.9273 24.5915 68.9273C16.9495 68.9273 11.3367 66.2074 8.86342 59.8507L0 65.0664C4.15914 74.4792 13.4768 79.2366 24.6015 79.2366C38.9869 79.2366 51 71.087 51 54.5228V23.5237Z" fill="white"/>
<path d="M35.2663 7.24838C35.1993 8.09453 34.9457 8.91533 34.5238 9.65187C34.102 10.3884 33.5223 11.0224 32.8263 11.5084C32.5742 11.6743 32.3102 11.8214 32.0363 11.9483C31.1094 12.2724 30.1255 12.4018 29.1463 12.3284C28.5767 12.2869 28.0133 12.183 27.4663 12.0184C27.1156 11.8849 26.7803 11.7139 26.4663 11.5084C25.6503 10.9551 24.9941 10.1969 24.5637 9.30986C24.1333 8.42281 23.9439 7.43815 24.0144 6.45473C24.0849 5.47131 24.4129 4.52375 24.9654 3.70718C25.5179 2.8906 26.2755 2.23375 27.1622 1.80256C28.0489 1.37138 29.0333 1.18104 30.0168 1.25066C31.0003 1.32028 31.9482 1.6474 32.7652 2.19918C33.5823 2.75096 34.2399 3.50799 34.6718 4.39426C35.1038 5.28052 35.2951 6.26484 35.2263 7.24838H35.2663Z" fill="white"/>
<path d="M61 77.8939V0.763H72.0187V77.8939H61ZM91.1741 27.208C96.8303 21.4047 103.699 18.5031 111.779 18.5031C120.373 18.5031 127.095 21.9189 131.943 28.7505V19.4948H142.962V77.8939H131.943V68.6382C129.74 71.7969 126.875 74.2945 123.348 76.1309C119.896 77.8939 116.04 78.7754 111.779 78.7754C103.699 78.7754 96.7935 75.8371 91.0639 69.9605C85.4076 64.0103 82.5795 56.9217 82.5795 48.6944C82.5795 40.2467 85.4443 33.0846 91.1741 27.208ZM92.937 48.6944C92.937 54.2037 94.8469 58.9418 98.6668 62.9085C102.56 66.8018 107.261 68.7484 112.771 68.7484C118.206 68.7484 122.871 66.765 126.765 62.7983C130.657 58.8316 132.604 54.1303 132.604 48.6944C132.604 43.185 130.657 38.4469 126.765 34.4802C122.871 30.5135 118.206 28.5302 112.771 28.5302C107.188 28.5302 102.487 30.5135 98.6668 34.4802C94.8469 38.3735 92.937 43.1116 92.937 48.6944ZM155.474 0.763H166.493V28.8607C171.194 22.1026 177.916 18.6501 186.657 18.5031C186.73 18.5031 186.84 18.5031 186.988 18.5031C195.069 18.5031 201.899 21.4414 207.483 27.318C213.065 33.1213 215.857 40.2467 215.857 48.6944C215.857 56.9951 213.065 64.0838 207.483 69.9605C201.899 75.8371 194.957 78.7754 186.657 78.7754C178.063 78.7754 171.341 75.4331 166.493 68.7484V77.8939H155.474V0.763ZM171.671 62.7983C175.565 66.765 180.23 68.7484 185.665 68.7484C191.175 68.7484 195.839 66.8018 199.659 62.9085C203.553 58.9418 205.499 54.2037 205.499 48.6944C205.499 43.185 203.553 38.4469 199.659 34.4802C195.766 30.5135 191.102 28.5302 185.665 28.5302C180.156 28.5302 175.455 30.5135 171.561 34.4802C167.741 38.4469 165.832 43.185 165.832 48.6944C165.832 54.1303 167.779 58.8316 171.671 62.7983ZM223.974 35.8024C223.974 30.44 226.214 26.2163 230.696 23.131C235.25 20.0458 240.907 18.5031 247.665 18.5031C256.259 18.5031 263.826 20.6702 270.363 25.0042V35.6923C261.989 30.5503 254.422 27.9792 247.665 27.9792C244.139 27.9792 241.2 28.6771 238.85 30.0728C236.499 31.4685 235.323 33.3416 235.323 35.6923C235.323 36.8676 235.655 37.8593 236.315 38.6674C236.976 39.4754 238.042 40.21 239.511 40.871C241.053 41.4587 242.485 41.9362 243.808 42.3036C245.204 42.6708 247.187 43.1116 249.759 43.6258C251.08 43.9196 252.109 44.14 252.844 44.2869C259.749 45.9029 264.743 48.1802 267.829 51.1185C270.988 53.9833 272.603 57.546 272.677 61.8066C272.677 67.4629 270.4 71.7234 265.846 74.5883C261.291 77.3797 255.819 78.7754 249.427 78.7754C240.98 78.7754 232.826 76.0942 224.966 70.7318V59.1621C227.537 61.6597 231.136 63.937 235.765 65.9938C240.465 68.0505 245.02 69.0789 249.427 69.0789C252.734 69.0789 255.524 68.4179 257.802 67.0956C260.153 65.6999 261.328 63.9002 261.328 61.6964C261.328 57.5093 256.076 54.4242 245.572 52.4407C238.152 50.9715 232.679 48.9882 229.153 46.4906C225.701 43.9196 223.974 40.3568 223.974 35.8024ZM318.758 27.208C324.414 21.4047 331.282 18.5031 339.362 18.5031C347.957 18.5031 354.678 21.9189 359.527 28.7505V0.763H370.545V77.8939H359.527V68.7484C354.678 75.4331 347.957 78.7754 339.362 78.7754C331.282 78.7754 324.378 75.8371 318.648 69.9605C312.991 64.0103 310.164 56.9217 310.164 48.6944C310.164 40.2467 313.028 33.0846 318.758 27.208ZM326.25 62.9085C330.07 66.8018 334.772 68.7484 340.354 68.7484C345.791 68.7484 350.455 66.765 354.348 62.7983C358.241 58.8316 360.188 54.1303 360.188 48.6944C360.188 43.185 358.241 38.4469 354.348 34.4802C350.528 30.5135 345.864 28.5302 340.354 28.5302C334.845 28.5302 330.143 30.5135 326.25 34.4802C322.431 38.4469 320.521 43.185 320.521 48.6944C320.521 54.2772 322.431 59.0152 326.25 62.9085ZM394.737 18.5086V77.8939H383.718V18.5086H394.737ZM405.823 47.7027C405.823 39.3284 408.578 32.3867 414.088 26.8773C419.67 21.2945 426.539 18.5031 434.693 18.5031C434.839 18.5031 434.949 18.5031 435.023 18.5031C443.691 18.5766 450.413 21.9189 455.187 28.5302V19.4948H466.206V72.7151C466.206 82.4851 463.379 90.0145 457.722 95.3035C452.139 100.592 445.381 103.237 437.447 103.237C430.762 103.237 424.702 101.364 419.267 97.6175C413.83 93.9445 410.268 88.5454 408.578 81.4199H419.597C420.845 85.3132 423.123 88.1781 426.429 90.0145C429.807 91.9244 433.407 92.8794 437.227 92.8794C442.369 92.8794 446.63 91.2633 450.008 88.0312C453.388 84.8724 455.114 79.914 455.187 73.1559V67.4262C450.486 73.817 443.765 77.0125 435.023 77.0125C426.649 77.0125 419.67 74.221 414.088 68.6382C408.578 63.0554 405.823 56.0769 405.823 47.7027ZM416.181 47.7027C416.181 53.2855 418.091 57.9501 421.91 61.6964C425.804 65.3694 430.506 67.2058 436.014 67.2058C441.451 67.2058 446.115 65.3326 450.008 61.5862C453.902 57.7665 455.849 53.1386 455.849 47.7027C455.849 42.3403 453.902 37.7859 450.008 34.0395C446.188 30.2931 441.524 28.4199 436.014 28.4199C430.432 28.4199 425.73 30.2931 421.91 34.0395C418.091 37.7124 416.181 42.2668 416.181 47.7027ZM490.075 19.4948V77.8939H479.056V19.4948H490.075ZM499.949 29.0811V19.4948H511.519V4.83993L522.427 1.6445V19.4948H540.939V29.0811H522.427V59.2723C522.427 63.386 523.492 65.9571 525.622 66.9855C527.827 67.9404 529.92 68.4179 531.904 68.4179C534.474 68.4179 537.559 67.9037 541.159 66.8753V77.5634C537.339 78.5918 533.85 79.106 530.691 79.106C526.43 79.106 522.17 77.8572 517.91 75.3596C513.649 72.8621 511.519 67.5363 511.519 59.3826V29.0811H499.949ZM555.703 27.208C561.36 21.4047 568.228 18.5031 576.307 18.5031C584.903 18.5031 591.624 21.9189 596.472 28.7505V19.4948H607.491V77.8939H596.472V68.6382C594.268 71.7969 591.403 74.2945 587.878 76.1309C584.426 77.8939 580.569 78.7754 576.307 78.7754C568.228 78.7754 561.323 75.8371 555.593 69.9605C549.936 64.0103 547.109 56.9217 547.109 48.6944C547.109 40.2467 549.973 33.0846 555.703 27.208ZM557.466 48.6944C557.466 54.2037 559.376 58.9418 563.195 62.9085C567.089 66.8018 571.79 68.7484 577.299 68.7484C582.736 68.7484 587.4 66.765 591.293 62.7983C595.186 58.8316 597.133 54.1303 597.133 48.6944C597.133 43.185 595.186 38.4469 591.293 34.4802C587.4 30.5135 582.736 28.5302 577.299 28.5302C571.717 28.5302 567.015 30.5135 563.195 34.4802C559.376 38.3735 557.466 43.1116 557.466 48.6944ZM620.113 77.8939V0.763H631.132V77.8939H620.113Z" fill="white"/>
</svg>
